<svg width="13" height="13" viewBox="0 0 13 13" fill="none" xmlns="http://www.w3.org/2000/svg">
<path d="M1.85714 1.92857C1.85714 2.27679 1.70238 2.54278 1.39286 2.72656V11.9107C1.39286 11.9736 1.36989 12.028 1.32394 12.0739C1.278 12.1199 1.22359 12.1429 1.16072 12.1429H0.696429C0.633557 12.1429 0.579149 12.1199 0.533204 12.0739C0.487259 12.028 0.464286 11.9736 0.464286 11.9107V2.72656C0.154762 2.54278 0 2.27679 0 1.92857C0 1.67225 0.0906809 1.4534 0.272043 1.27204C0.453404 1.09068 0.672248 1 0.928572 1C1.1849 1 1.40374 1.09068 1.5851 1.27204C1.76646 1.4534 1.85714 1.67225 1.85714 1.92857ZM12.5357 2.39286V7.92801C12.5357 8.04892 12.5055 8.14202 12.445 8.20731C12.3846 8.2726 12.2891 8.3391 12.1585 8.40681C11.1187 8.96782 10.2264 9.24833 9.48159 9.24833C9.18658 9.24833 8.88794 9.19513 8.58567 9.08873C8.2834 8.98233 8.02103 8.86626 7.79856 8.74051C7.57609 8.61477 7.29679 8.4987 6.96066 8.3923C6.62454 8.2859 6.27995 8.2327 5.9269 8.2327C4.99833 8.2327 3.87631 8.58575 2.56083 9.29185C2.47861 9.33538 2.39881 9.35714 2.32143 9.35714C2.19569 9.35714 2.08687 9.3112 1.99498 9.21931C1.90309 9.12742 1.85714 9.0186 1.85714 8.89286V3.51004C1.85714 3.35528 1.93211 3.22228 2.08203 3.11105C2.1836 3.04334 2.37463 2.93936 2.65514 2.79911C3.79651 2.21875 4.81455 1.92857 5.70927 1.92857C6.22675 1.92857 6.71039 1.9987 7.16016 2.13895C7.60994 2.2792 8.13952 2.492 8.74889 2.77734C8.93267 2.86923 9.14547 2.91518 9.38729 2.91518C9.64845 2.91518 9.93258 2.8644 10.2397 2.76283C10.5468 2.66127 10.8128 2.54762 11.0377 2.42188C11.2626 2.29613 11.4754 2.18248 11.6761 2.08092C11.8768 1.97935 12.0086 1.92857 12.0714 1.92857C12.1972 1.92857 12.306 1.97452 12.3979 2.06641C12.4898 2.1583 12.5357 2.26711 12.5357 2.39286Z" fill="#FF2D2D"/>
</svg>
